<svg width="39" height="61" viewBox="0 0 39 61" fill="none" xmlns="http://www.w3.org/2000/svg">
<path d="M19.5332 1.19189V16.6192C19.5332 19.0289 21.4999 20.9825 23.9258 20.9825C26.3517 20.9825 28.3184 19.0289 28.3184 16.6192V13.6091C28.3184 16.0188 30.285 17.9724 32.711 17.9724C35.1369 17.9724 37.1036 16.0188 37.1036 13.6091V1.19189H19.5332Z" fill="#A4FCC4"/>
<path d="M37.104 0H1.19141C0.533512 0 0 0.533512 0 1.19141V32.775C0 36.416 2.98316 39.3782 6.64995 39.3782H14.4724V41.6594C14.4724 44.3572 13.8618 48.2759 12.6948 50.5458C12.1127 51.678 11.8444 52.9536 11.9188 54.2348C12.1307 57.8822 15.1788 60.8514 18.8581 60.9943C18.9563 60.9981 19.0542 61 19.152 61C21.0433 61 22.8213 60.2871 24.1855 58.9746C25.6063 57.6081 26.3886 55.7743 26.3886 53.8106C26.3886 52.7209 26.149 51.6738 25.6764 50.6982C24.4724 48.2125 23.8226 44.1858 23.8226 41.6589V39.3781H31.6451C35.3119 39.3781 38.295 36.4159 38.295 32.7749V1.19141C38.2954 0.533512 37.7619 0 37.104 0ZM2.38281 2.38281H6.12478V6.97175C6.12478 7.62965 6.65829 8.16316 7.31619 8.16316C7.97408 8.16316 8.50759 7.62965 8.50759 6.97175V2.38281H11.1122V14.429C11.1122 15.0869 11.6458 15.6204 12.3037 15.6204C12.9615 15.6204 13.4951 15.0869 13.4951 14.429V2.38281H35.9124V28.9257H2.38269V2.38281H2.38281ZM35.9126 32.775C35.9126 35.1022 33.9983 36.9954 31.6454 36.9954H22.6316C21.9737 36.9954 21.4402 37.5289 21.4402 38.1868V41.6591C21.4402 44.5209 22.1587 48.9016 23.5322 51.7371C23.8467 52.3861 24.0061 53.0839 24.0061 53.8107C24.0061 55.1202 23.4833 56.3443 22.5341 57.2574C21.5705 58.1843 20.2954 58.6642 18.9511 58.6135C16.4835 58.5176 14.4396 56.5337 14.2981 54.0968C14.2483 53.2404 14.4267 52.3892 14.8143 51.6354C16.2167 48.9076 16.8555 44.552 16.8555 41.6597V38.1871C16.8555 37.5292 16.322 36.9957 15.6641 36.9957H6.65031C4.2974 36.9957 2.38317 35.1024 2.38317 32.7752V31.3087H35.9129V32.775H35.9126Z" fill="white"/>
</svg>
