<svg width="41" height="32" viewBox="0 0 41 32" fill="none" xmlns="http://www.w3.org/2000/svg">
<path d="M34.0986 3.31012C34.0876 3.28847 34.0694 3.27151 34.0472 3.26227C31.4858 2.06657 28.7828 1.21394 26.0058 0.725724C25.9806 0.720952 25.9545 0.724395 25.9313 0.735563C25.9081 0.746731 25.889 0.765056 25.8766 0.787931C25.5086 1.46762 25.1744 2.16577 24.8755 2.87973C21.8821 2.4174 18.8372 2.4174 15.8438 2.87973C15.5429 2.16396 15.2034 1.46563 14.8269 0.787931C14.814 0.765553 14.7947 0.74765 14.7717 0.736554C14.7486 0.725459 14.7228 0.721685 14.6976 0.725724C11.9204 1.21292 9.21716 2.06561 6.65609 3.26234C6.63417 3.27179 6.61567 3.28794 6.60315 3.30855C1.48151 11.0904 0.0785031 18.681 0.766772 26.1776C0.768708 26.1959 0.774256 26.2137 0.783086 26.2299C0.791916 26.246 0.803847 26.2602 0.81817 26.2716C3.80045 28.5182 7.13617 30.2331 10.683 31.3431C10.708 31.3507 10.7346 31.3504 10.7594 31.3421C10.7842 31.3338 10.8059 31.318 10.8216 31.2969C11.5834 30.2423 12.2584 29.1255 12.8397 27.958C12.8477 27.942 12.8522 27.9245 12.8531 27.9065C12.8539 27.8886 12.851 27.8707 12.8445 27.8539C12.8381 27.8372 12.8282 27.8221 12.8155 27.8095C12.8029 27.797 12.7878 27.7873 12.7712 27.7811C11.7068 27.3668 10.6763 26.8673 9.68947 26.2873C9.67155 26.2766 9.65649 26.2615 9.64564 26.2435C9.63478 26.2254 9.62846 26.2049 9.62723 26.1838C9.626 26.1627 9.6299 26.1416 9.63859 26.1224C9.64728 26.1031 9.66049 26.0864 9.67704 26.0736C9.88412 25.9157 10.0913 25.7515 10.2891 25.5857C10.3066 25.571 10.3279 25.5615 10.3504 25.5585C10.373 25.5554 10.3959 25.5587 10.4167 25.5682C16.8821 28.5703 23.8818 28.5703 30.2706 25.5682C30.2914 25.5581 30.3146 25.5543 30.3375 25.5571C30.3604 25.5599 30.382 25.5693 30.3999 25.5841C30.5977 25.75 30.8048 25.9157 31.0134 26.0736C31.0301 26.0863 31.0434 26.1029 31.0522 26.122C31.0611 26.1412 31.0651 26.1623 31.064 26.1834C31.063 26.2045 31.0568 26.225 31.0461 26.2432C31.0353 26.2613 31.0204 26.2764 31.0026 26.2873C30.0179 26.8721 28.9865 27.3713 27.9193 27.7796C27.9028 27.786 27.8877 27.7959 27.8751 27.8086C27.8626 27.8214 27.8528 27.8367 27.8465 27.8535C27.8401 27.8704 27.8374 27.8884 27.8383 27.9064C27.8393 27.9244 27.844 27.942 27.8521 27.958C28.4432 29.1191 29.1172 30.2344 29.8687 31.295C29.884 31.3168 29.9055 31.3331 29.9304 31.3417C29.9553 31.3503 29.9822 31.3507 30.0073 31.3429C33.5605 30.2367 36.902 28.5216 39.888 26.2716C39.9026 26.2608 39.9147 26.2469 39.9235 26.231C39.9324 26.2151 39.9378 26.1974 39.9394 26.1791C40.7634 17.5123 38.5599 9.98398 34.0986 3.31012ZM13.8052 21.6129C11.8587 21.6129 10.2548 19.7955 10.2548 17.5634C10.2548 15.3313 11.8276 13.5137 13.8052 13.5137C15.7984 13.5137 17.3867 15.3471 17.3556 17.5633C17.3556 19.7955 15.7828 21.6129 13.8052 21.6129ZM26.9323 21.6129C24.9858 21.6129 23.382 19.7955 23.382 17.5634C23.382 15.3313 24.9547 13.5137 26.9323 13.5137C28.9256 13.5137 30.5139 15.3471 30.4828 17.5633C30.4828 19.7955 28.9256 21.6129 26.9323 21.6129Z" fill="#E06C35"/>
</svg>
