<svg width="31" height="31" viewBox="0 0 31 31" fill="none" xmlns="http://www.w3.org/2000/svg">
<path d="M15.9647 11.4572C15.2569 11.4574 14.5652 11.6676 13.9768 12.061C13.3884 12.4544 12.9299 13.0134 12.6593 13.6674C12.3886 14.3213 12.3179 15.0409 12.4562 15.735C12.5944 16.4292 12.9354 17.0667 13.4359 17.5671C13.9365 18.0675 14.5742 18.4082 15.2684 18.5462C15.9625 18.6841 16.6821 18.6132 17.3359 18.3423C17.9898 18.0714 18.5486 17.6127 18.9418 17.0241C19.335 16.4356 19.5449 15.7438 19.5449 15.036C19.5442 14.0868 19.1667 13.1767 18.4954 12.5057C17.8241 11.8347 16.9139 11.4575 15.9647 11.4572ZM24.3321 8.70631C24.1499 8.24459 23.8748 7.82524 23.5238 7.47426C23.1728 7.12327 22.7534 6.84816 22.2917 6.66596C20.8827 6.10975 17.528 6.23455 15.9647 6.23455C14.4014 6.23455 11.05 6.10505 9.63703 6.66596C9.17532 6.84816 8.75596 7.12327 8.40498 7.47426C8.054 7.82524 7.77888 8.24459 7.59669 8.70631C7.04115 10.1153 7.16527 13.4734 7.16527 15.0353C7.16527 16.5973 7.04115 19.9513 7.59937 21.365C7.78156 21.8267 8.05668 22.2461 8.40766 22.5971C8.75864 22.9481 9.178 23.2232 9.63972 23.4054C11.0487 23.9616 14.4034 23.8368 15.9674 23.8368C17.5314 23.8368 20.8814 23.9663 22.2944 23.4054C22.7561 23.2232 23.1755 22.9481 23.5265 22.5971C23.8774 22.2461 24.1526 21.8267 24.3348 21.365C24.895 19.956 24.7662 16.598 24.7662 15.036C24.7662 13.474 24.895 10.1207 24.3348 8.70698L24.3321 8.70631ZM15.9647 20.5378C14.8766 20.5378 13.8129 20.2151 12.9081 19.6105C12.0033 19.006 11.2982 18.1467 10.8818 17.1414C10.4653 16.1361 10.3564 15.0299 10.5687 13.9627C10.781 12.8954 11.305 11.9151 12.0744 11.1457C12.8438 10.3762 13.8241 9.85225 14.8914 9.63997C15.9586 9.42768 17.0648 9.53664 18.0701 9.95305C19.0755 10.3695 19.9347 11.0746 20.5392 11.9794C21.1438 12.8842 21.4665 13.9479 21.4665 15.036C21.4673 15.7587 21.3256 16.4746 21.0495 17.1425C20.7733 17.8104 20.3681 18.4172 19.857 18.9283C19.3459 19.4394 18.7391 19.8446 18.0712 20.1208C17.4033 20.3969 16.6875 20.5386 15.9647 20.5378ZM21.6932 10.5876C21.4392 10.5878 21.1909 10.5126 20.9796 10.3715C20.7683 10.2305 20.6036 10.03 20.5063 9.79535C20.409 9.56071 20.3835 9.30248 20.433 9.05333C20.4825 8.80418 20.6047 8.57529 20.7843 8.39563C20.9638 8.21596 21.1927 8.09359 21.4418 8.04398C21.6909 7.99438 21.9492 8.01977 22.1839 8.11695C22.4185 8.21413 22.6191 8.37872 22.7603 8.58992C22.9014 8.80112 22.9768 9.04943 22.9768 9.30345C22.9775 9.47213 22.9449 9.6393 22.8808 9.79535C22.8168 9.95141 22.7226 10.0933 22.6036 10.2128C22.4846 10.3324 22.3431 10.4273 22.1874 10.4921C22.0316 10.5568 21.8646 10.5902 21.6959 10.5903L21.6932 10.5876ZM27.7733 0.00683594H4.15608C3.30194 0.00683594 2.48279 0.346141 1.87882 0.950109C1.27485 1.55408 0.935547 2.37323 0.935547 3.22737L0.935547 26.8446C0.935547 27.6988 1.27485 28.5179 1.87882 29.1219C2.48279 29.7259 3.30194 30.0652 4.15608 30.0652H27.7733C28.6275 30.0652 29.4466 29.7259 30.0506 29.1219C30.6546 28.5179 30.9939 27.6988 30.9939 26.8446V3.22737C30.9939 2.37323 30.6546 1.55408 30.0506 0.950109C29.4466 0.346141 28.6275 0.00683594 27.7733 0.00683594ZM26.6247 19.4642C26.5381 21.1839 26.1456 22.7076 24.8903 23.9596C23.635 25.2116 22.1126 25.6121 20.395 25.694C18.623 25.7939 13.3105 25.7939 11.5385 25.694C9.81886 25.6074 8.30051 25.2142 7.04316 23.9596C5.78581 22.7049 5.39062 21.1805 5.30877 19.4642C5.2088 17.6916 5.2088 12.3784 5.30877 10.6078C5.39532 8.88813 5.78312 7.36442 7.04316 6.11243C8.30319 4.86045 9.82557 4.46459 11.5385 4.38274C13.3105 4.28277 18.623 4.28277 20.395 4.38274C22.1146 4.46929 23.6376 4.86246 24.8903 6.11713C26.1429 7.3718 26.5428 8.89618 26.6247 10.6158C26.7247 12.3817 26.7247 17.6903 26.6247 19.4642Z" fill="#E06C35"/>
</svg>
