<svg width="51" height="64" viewBox="0 0 51 64" fill="none" xmlns="http://www.w3.org/2000/svg">
<path fill-rule="evenodd" clip-rule="evenodd" d="M31.9999 41.6251C31.9999 39.0637 32.3676 38.3048 36.0663 33.4534C42.9397 24.6424 36.4147 11.2637 25.1247 11.3752C13.8357 11.2655 7.30884 24.6416 14.1837 33.4536C17.8823 38.3048 18.2498 39.0637 18.2498 41.6251H31.9999Z" fill="#FFF69B"/>
<path d="M32 40.375H18.25C17.5596 40.375 17 40.9346 17 41.625V49.875C17 52.0806 18.7944 53.875 21 53.875H23.875V62.75C23.875 63.4404 24.4346 64 25.125 64C25.8154 64 26.375 63.4404 26.375 62.75V53.875H29.25C31.4556 53.875 33.25 52.0806 33.25 49.875V41.625C33.25 40.9346 32.6904 40.375 32 40.375ZM30.75 42.875V45.875H19.5V42.875H30.75ZM29.25 51.375H21C20.1729 51.375 19.5 50.7021 19.5 49.875V48.375H30.75V49.875C30.75 50.7021 30.077 51.375 29.25 51.375Z" fill="white"/>
<path d="M25.1238 18.875C22.1188 18.875 19.2937 20.0452 17.1688 22.1701C16.6807 22.6582 16.6807 23.4497 17.1688 23.9379C17.657 24.426 18.4485 24.426 18.9366 23.9379C22.1934 20.5434 28.0541 20.5435 31.3108 23.938C31.5549 24.182 31.8748 24.304 32.1947 24.304C33.2797 24.3232 33.8708 22.939 33.0786 22.1701C30.9539 20.0452 28.1288 18.875 25.1238 18.875Z" fill="white"/>
<path d="M28.6613 27.8394C29.7478 27.8584 30.3366 26.4741 29.5452 25.7055C27.2188 23.2811 23.0327 23.281 20.7063 25.7056C19.5774 26.9155 21.2628 28.6031 22.4742 27.4734C23.1824 26.7651 24.1241 26.375 25.1258 26.375C26.1276 26.375 27.0692 26.7651 27.7774 27.4734C28.0214 27.7174 28.3414 27.8394 28.6613 27.8394Z" fill="white"/>
<path d="M23.875 30.125C23.875 30.8157 24.4352 31.3756 25.126 31.375C26.7822 31.3136 26.7809 28.9357 25.125 28.875C24.4346 28.875 23.875 29.4346 23.875 30.125Z" fill="white"/>
<path d="M25.125 6.99999C25.8154 6.99999 26.375 6.44037 26.375 5.74999V1.25C26.375 0.559625 25.8154 0 25.125 0C24.4346 0 23.875 0.559625 23.875 1.25V5.74999C23.875 6.44037 24.4346 6.99999 25.125 6.99999Z" fill="white"/>
<path d="M37.6877 3.36645C37.0901 3.0212 36.3255 3.22607 35.9802 3.82395L33.7302 7.72119C33.385 8.31907 33.5898 9.08357 34.1877 9.42869C34.775 9.77082 35.5481 9.57444 35.8952 8.97119L38.1452 5.07395C38.4905 4.47607 38.2856 3.71157 37.6877 3.36645Z" fill="white"/>
<path d="M41.9054 16.6877C42.1174 16.6877 42.3324 16.6336 42.5293 16.52L46.4264 14.27C47.8301 13.3946 46.6387 11.3265 45.1764 12.105L41.2793 14.355C40.1738 15.0015 40.6436 16.6871 41.9054 16.6877Z" fill="white"/>
<path d="M48.9999 23.875H44.4999C42.8447 23.9357 42.8429 26.3136 44.4999 26.375H48.9999C50.6549 26.3142 50.6567 23.9364 48.9999 23.875Z" fill="white"/>
<path d="M46.4286 35.9803L42.5315 33.7303C41.9336 33.3849 41.1692 33.5899 40.824 34.1878C40.4787 34.7856 40.6836 35.5501 41.2815 35.8953L45.1786 38.1453C45.3755 38.259 45.5903 38.313 45.8025 38.313C47.0632 38.3123 47.5351 36.6276 46.4286 35.9803Z" fill="white"/>
<path d="M14.2704 3.8234C13.3949 2.41978 11.3272 3.61103 12.1054 5.0734L14.3554 8.97065C15.2363 10.3775 17.2979 9.17752 16.5204 7.72065C16.5205 7.72065 14.2704 3.8234 14.2704 3.8234Z" fill="white"/>
<path d="M8.9696 14.3551L5.07248 12.1051C4.47486 11.7601 3.71023 11.9647 3.36498 12.5626C3.01973 13.1605 3.22461 13.925 3.82248 14.2701L7.71961 16.5201C7.91648 16.6339 8.13136 16.6879 8.34348 16.6879C9.60423 16.6871 10.0762 15.0026 8.9696 14.3551Z" fill="white"/>
<path d="M6.99999 25.125C6.99999 24.4346 6.44037 23.875 5.74999 23.875H1.25C0.559624 23.875 0 24.4346 0 25.125C0 25.8154 0.559624 26.375 1.25 26.375H5.74999C6.44037 26.375 6.99999 25.8154 6.99999 25.125Z" fill="white"/>
<path d="M7.72122 33.73L3.8241 35.98C2.41697 36.8603 3.61835 38.9231 5.07409 38.145L8.97122 35.895C10.3748 35.0196 9.18359 32.9516 7.72122 33.73Z" fill="white"/>
</svg>
