<svg width="33" height="33" viewBox="0 0 33 33" fill="none" xmlns="http://www.w3.org/2000/svg">
<path fill-rule="evenodd" clip-rule="evenodd" d="M0.857422 16.0361C0.857422 7.19958 8.02087 0.0361328 16.8574 0.0361328C25.694 0.0361328 32.8574 7.19958 32.8574 16.0361C32.8574 24.8727 25.694 32.0361 16.8574 32.0361C8.02087 32.0361 0.857422 24.8727 0.857422 16.0361ZM9.05742 13.3361V24.0361H12.4574V13.3361H9.05742ZM8.85742 9.93613C8.85742 11.0361 9.65742 11.8361 10.7574 11.8361C11.8574 11.8361 12.6574 11.0361 12.6574 9.93613C12.6574 8.83614 11.8574 8.03613 10.7574 8.03613C9.75742 8.03613 8.85742 8.83614 8.85742 9.93613ZM21.4574 24.0361H24.6574V17.4361C24.6574 14.1361 22.6574 13.0361 20.7574 13.0361C19.0574 13.0361 17.8574 14.1361 17.5574 14.8361V13.3361H14.3574V24.0361H17.7574V18.3361C17.7574 16.8361 18.7574 16.0361 19.7574 16.0361C20.7574 16.0361 21.4574 16.5361 21.4574 18.2361V24.0361Z" fill="#E06C35"/>
</svg>
