<svg width="49" height="49" viewBox="0 0 49 49" fill="none" xmlns="http://www.w3.org/2000/svg">
<path d="M34.0402 17.6757C35.5714 19.7698 36.4764 22.3505 36.4764 25.1387C36.4764 32.1202 30.8031 37.8 23.8296 37.8C16.8561 37.8 11.1828 32.1202 11.1828 25.1387C11.1828 18.1572 16.8561 12.4774 23.8296 12.4774C26.6448 12.4774 29.248 13.403 31.3517 14.9663L34.9946 11.3192C31.942 8.84242 28.0559 7.35693 23.8296 7.35693C14.036 7.35693 6.06836 15.3338 6.06836 25.1387C6.06836 34.9436 14.036 42.9205 23.8296 42.9205C33.6232 42.9205 41.5909 34.9436 41.5909 25.1387C41.5909 20.9376 40.128 17.0721 37.6857 14.026L34.0402 17.6757Z" fill="#FFBDBC"/>
<path d="M24.234 24.7838C24.9543 22.5255 26.133 20.445 27.6919 18.6709C26.56 17.9894 25.2356 17.5972 23.8213 17.5972C19.668 17.5972 16.2891 20.98 16.2891 25.1382C16.2891 29.2962 19.6681 32.6791 23.8213 32.6791C27.9745 32.6791 31.3535 29.2963 31.3535 25.1382C31.3535 23.7524 30.9782 22.4528 30.324 21.3357C28.5555 22.8895 26.4831 24.0648 24.234 24.7838Z" fill="#FFBDBC"/>
<path d="M48.7193 9.30232C48.9793 9.04198 49.0677 8.65531 48.9465 8.30749C48.8253 7.95967 48.5162 7.71218 48.151 7.67046L44.2812 7.22968L41.7785 4.72414L41.3383 0.850817C41.2967 0.485057 41.0499 0.175318 40.7032 0.0538778C40.3563 -0.067946 39.971 0.020688 39.711 0.280643L35.9247 4.07138C35.8197 4.17661 35.7209 4.28644 35.6286 4.40049C32.0467 2.35481 27.986 1.2772 23.8328 1.2772C17.467 1.2772 11.4822 3.75905 6.98078 8.26567C2.47919 12.7726 0 18.7649 0 25.1386C0 31.5124 2.47919 37.5047 6.98078 42.0115C11.4822 46.5181 17.467 49 23.8328 49C30.1985 49 36.1833 46.5182 40.6847 42.0115C45.1863 37.5047 47.6655 31.5124 47.6655 25.1386C47.6655 21.0098 46.6039 16.9708 44.588 13.4025C44.7076 13.3064 44.8228 13.2032 44.9329 13.093L48.7193 9.30232ZM43.5802 11.7356C43.091 12.2255 42.4163 12.4624 41.728 12.3833L40.7904 12.2765L43.9414 9.12189L45.9612 9.35191L43.5802 11.7356ZM30.4733 19.8938C29.1605 21.2082 27.6192 22.2908 25.9417 23.0855C26.7353 21.4069 27.8164 19.8645 29.1288 18.5508L41.0048 6.66105L42.3479 8.00562L30.4733 19.8938ZM23.407 24.2681C23.4051 24.2701 23.4031 24.2719 23.4012 24.2738L22.38 25.2962C22.0061 25.6705 22.0057 26.2779 22.3792 26.6528C22.5661 26.8403 22.8112 26.9342 23.0563 26.9342C23.3011 26.9342 23.5458 26.8406 23.7326 26.6536L24.7539 25.6311C24.7559 25.6291 24.7578 25.6271 24.7598 25.6251C27.4106 24.7388 29.8496 23.2299 31.8261 21.2512L33.8922 19.1827C34.9614 20.9828 35.5225 23.024 35.5225 25.1387C35.5225 31.5914 30.2785 36.8408 23.8328 36.8408C17.387 36.8408 12.143 31.5913 12.143 25.1387C12.143 18.6862 17.387 13.4367 23.8328 13.4367C25.9771 13.4367 28.04 14.0132 29.8552 15.112L27.776 17.1935C25.7996 19.1721 24.2923 21.614 23.407 24.2681ZM39.661 3.04249L39.8907 5.06467L36.7377 8.22125L36.6309 7.2811C36.5529 6.59342 36.7885 5.91821 37.2775 5.42861L39.661 3.04249ZM45.7515 25.1386C45.7515 37.238 35.9189 47.0815 23.8329 47.0815C11.7468 47.0815 1.91406 37.238 1.91406 25.1386C1.91406 13.0392 11.7467 3.19569 23.8328 3.19569C27.6978 3.19569 31.475 4.2097 34.7966 6.13385C34.7009 6.57529 34.6766 7.03525 34.7291 7.49827L35.0081 9.95297L31.2444 13.7211C29.0362 12.2776 26.4881 11.5182 23.8328 11.5182C16.3316 11.5182 10.2289 17.6284 10.2289 25.1387C10.2289 32.6491 16.3316 38.7593 23.8328 38.7593C31.3339 38.7593 37.4366 32.6491 37.4366 25.1387C37.4366 22.5132 36.6937 19.9849 35.283 17.7904L39.0587 14.0103L41.5119 14.2896V14.2897C41.6721 14.3078 41.8316 14.3169 41.9904 14.3169C42.2828 14.3169 42.5718 14.2863 42.8534 14.2266C44.7513 17.5363 45.7515 21.2947 45.7515 25.1386Z" fill="white"/>
</svg>
