<svg width="37" height="30" viewBox="0 0 37 30" fill="none" xmlns="http://www.w3.org/2000/svg">
<path d="M12.2055 29.691C25.8145 29.691 33.2602 18.4134 33.2602 8.63639C33.2602 8.31935 33.2531 7.99526 33.239 7.67821C34.6874 6.63075 35.9374 5.33332 36.9301 3.84689C35.5812 4.44706 34.149 4.83902 32.6824 5.00939C34.2266 4.08379 35.3828 2.6297 35.9367 0.916688C34.484 1.77761 32.8954 2.38492 31.2388 2.71257C30.1227 1.52661 28.6469 0.741359 27.0397 0.478231C25.4325 0.215102 23.7834 0.488751 22.3474 1.25687C20.9113 2.02499 19.7682 3.24479 19.095 4.72769C18.4217 6.21059 18.2556 7.87399 18.6225 9.46071C15.681 9.3131 12.8034 8.54898 10.1762 7.21789C7.54895 5.8868 5.23078 4.01845 3.37194 1.73396C2.42719 3.36284 2.13809 5.29032 2.56341 7.12469C2.98873 8.95906 4.09655 10.5627 5.66172 11.6096C4.48668 11.5723 3.33739 11.2559 2.30879 10.6866V10.7782C2.30773 12.4876 2.89868 14.1446 3.98118 15.4675C5.06368 16.7905 6.57093 17.6977 8.24669 18.035C7.15821 18.3328 6.0158 18.3762 4.90785 18.1618C5.38072 19.6319 6.30076 20.9177 7.53955 21.8397C8.77834 22.7617 10.2741 23.274 11.818 23.305C9.19687 25.364 5.95897 26.4808 2.62583 26.4755C2.03473 26.4746 1.4442 26.4383 0.857422 26.367C4.24353 28.5394 8.18249 29.6931 12.2055 29.691Z" fill="#E06C35"/>
</svg>
